<svg width="542" height="542" viewBox="0 0 542 542" fill="none" xmlns="http://www.w3.org/2000/svg">
<circle cx="271" cy="271" r="271" fill="#028090"/>
<circle cx="271" cy="271" r="252" fill="#114B5F" stroke="black" stroke-width="10"/>
<circle cx="270.5" cy="270.5" r="95.5" stroke="#456990" stroke-opacity="0.47" stroke-width="4"/>
<circle cx="271" cy="271" r="134" stroke="#456990" stroke-opacity="0.53" stroke-width="4"/>
<circle cx="270.5" cy="270.5" r="172.5" stroke="#456990" stroke-opacity="0.53" stroke-width="4"/>
<circle cx="271" cy="271" r="211" stroke="#456990" stroke-opacity="0.53" stroke-width="4"/>
<circle cx="271" cy="271" r="59" fill="#456990"/>
<circle cx="271" cy="271" r="49" fill="#F45B69" stroke="#E4FDE1" stroke-width="4"/>
<circle r="6" transform="matrix(-1 0 0 1 271 271)" fill="#E4FDE1" stroke="black" stroke-width="2"/>
<g opacity="0.4">
<path d="M179.276 256.114L179.12 255.958C179.016 255.854 178.964 255.749 178.964 255.645C178.756 255.749 178.548 255.906 178.34 256.114C177.091 256.739 176.415 257.365 176.311 257.99C176.519 257.886 176.779 257.73 177.091 257.521C177.299 257.313 177.456 257.208 177.56 257.208C177.664 257.104 177.872 256.948 178.184 256.739V256.896C178.392 256.896 178.704 256.687 179.12 256.27C178.912 256.583 178.548 256.844 178.028 257.052C177.612 257.261 177.247 257.573 176.935 257.99C177.247 257.782 177.508 257.625 177.716 257.521C178.028 257.313 178.34 257.208 178.652 257.208C178.444 257.313 178.236 257.469 178.028 257.677C177.82 257.886 177.612 257.99 177.403 257.99V258.146L177.247 257.99L176.935 258.303C176.727 258.407 176.571 258.459 176.467 258.459L176.935 257.834C176.727 257.938 176.519 258.146 176.311 258.459C176.103 258.772 175.895 258.928 175.687 258.928V258.772C175.687 258.563 175.739 258.459 175.843 258.459C175.635 258.459 175.322 258.667 174.906 259.084C174.49 259.501 174.23 259.762 174.126 259.866L174.75 259.553V260.022C174.75 260.127 174.646 260.231 174.438 260.335C174.23 260.335 174.074 260.387 173.97 260.491C173.97 260.387 174.022 260.283 174.126 260.179C174.334 260.074 174.49 259.97 174.594 259.866L173.502 260.491C173.085 260.596 172.669 260.804 172.253 261.117H172.409L172.097 261.742L171.473 262.524V262.367C171.369 262.367 171.265 262.419 171.161 262.524C171.056 262.524 170.952 262.524 170.848 262.524C170.432 262.94 170.016 263.201 169.6 263.305C169.184 263.409 168.923 263.618 168.819 263.931V264.087H168.975L169.288 263.931C168.975 264.139 168.507 264.556 167.883 265.181C167.363 265.702 166.999 265.963 166.79 265.963H166.634L166.79 265.65L166.634 265.494C166.218 265.702 165.906 265.911 165.698 266.119C165.594 266.328 165.23 266.536 164.605 266.744V266.588L164.918 266.119H164.761L164.605 266.275L164.293 266.432L162.576 267.682H162.889L161.952 268.464C161.64 268.672 161.432 268.881 161.328 269.089C161.432 268.777 161.536 268.568 161.64 268.464V268.308L160.391 269.089C160.079 269.298 159.663 269.558 159.143 269.871C158.727 270.079 158.414 270.288 158.206 270.496V270.34L157.426 270.965C157.218 271.174 157.114 271.33 157.114 271.434V271.591C156.906 271.695 156.75 271.747 156.646 271.747L156.958 271.591L156.49 271.747C155.553 272.372 154.669 273.102 153.836 273.935C153.628 274.04 153.42 274.196 153.212 274.404C153.108 274.509 153.004 274.561 152.9 274.561L152.744 274.873L154.617 273.779L154.461 273.623L154.929 273.466C154.825 274.092 154.044 274.717 152.588 275.342C151.443 275.968 150.663 276.437 150.247 276.749V276.593C149.414 277.427 148.582 278.052 147.749 278.469L147.905 278.625C147.697 278.625 147.229 278.886 146.501 279.407C145.772 279.928 145.252 280.397 144.94 280.814H145.096C144.68 281.127 144.42 281.283 144.316 281.283L144.784 280.814L130.269 291.444C126.627 294.154 123.09 296.916 119.656 299.73C116.326 302.543 112.789 305.045 109.043 307.233L107.794 307.702C107.69 307.806 107.586 307.859 107.482 307.859C108.315 307.025 109.147 306.295 109.979 305.67C110.604 305.253 111.228 304.784 111.852 304.263C111.644 304.471 111.436 304.576 111.228 304.576C111.124 304.576 111.436 304.159 112.164 303.325C112.893 302.7 113.621 302.022 114.349 301.293C112.789 302.231 111.488 302.908 110.448 303.325L110.291 303.638V303.481L109.979 303.794L109.823 304.107V303.95L109.355 304.419L109.043 304.576C109.563 303.95 110.135 303.429 110.76 303.012L112.633 301.762C111.904 301.97 111.592 302.074 111.696 302.074H111.54C111.644 302.074 111.8 301.97 112.008 301.762C112.112 301.658 112.216 301.501 112.32 301.293C112.424 301.189 112.633 301.032 112.945 300.824C111.8 300.928 111.072 300.72 110.76 300.199C110.448 299.677 110.239 299.104 110.135 298.479C110.343 297.541 110.656 296.707 111.072 295.978C111.592 295.248 112.112 294.571 112.633 293.945C113.257 293.32 113.829 292.695 114.349 292.069C114.87 291.548 115.182 291.027 115.286 290.506V290.35L119.344 285.973L128.084 277.062C128.916 275.916 130.009 274.873 131.362 273.935C131.57 273.831 131.986 273.519 132.61 272.998C133.234 272.372 133.859 271.747 134.483 271.122C135.211 270.392 135.836 269.715 136.356 269.089C136.876 268.464 137.188 268.047 137.292 267.839C137.188 267.839 136.98 267.943 136.668 268.151V267.995C142.599 262.367 148.426 256.739 154.148 251.112C159.871 245.484 165.75 239.96 171.785 234.541C177.195 229.538 182.658 224.692 188.173 220.002C193.687 215.208 199.462 210.779 205.497 206.715L205.341 206.871C203.884 208.017 202.479 209.112 201.127 210.154C199.774 211.092 198.422 212.082 197.069 213.124C197.277 213.02 197.589 212.811 198.005 212.499C198.422 212.186 198.89 211.821 199.41 211.404C199.93 210.988 200.607 210.519 201.439 209.998C201.439 210.31 200.867 210.935 199.722 211.873C198.682 212.707 197.485 213.645 196.132 214.687H196.288L194.572 216.251C194.051 216.667 193.635 217.032 193.323 217.345L194.728 216.251C194.416 216.667 193.999 217.032 193.479 217.345L192.074 218.283L193.323 217.345C193.011 217.553 192.647 217.814 192.231 218.127C191.814 218.439 191.45 218.7 191.138 218.908L191.294 218.752C191.086 218.856 190.618 219.273 189.889 220.002C189.785 220.107 189.681 220.211 189.577 220.315L191.138 219.065C190.41 219.898 189.525 220.628 188.485 221.253L188.329 221.409L187.86 222.035L188.485 221.566C188.485 221.462 188.537 221.357 188.641 221.253L189.577 220.628L188.953 221.097C189.057 220.993 189.213 220.94 189.421 220.94L189.577 221.097C189.473 221.097 189.993 220.628 191.138 219.69C192.283 218.752 193.219 218.074 193.947 217.658L182.554 228.444C183.074 228.027 183.542 227.663 183.959 227.35C184.375 227.037 184.895 226.672 185.519 226.256C180.005 231.362 174.594 236.625 169.288 242.045C164.085 247.36 158.935 252.727 153.836 258.146L139.946 272.998L135.732 277.062C135.419 277.375 135.055 277.844 134.639 278.469C134.223 278.99 133.911 279.355 133.703 279.563C134.223 279.251 134.691 278.834 135.107 278.313C135.628 277.792 136.2 277.427 136.824 277.218L148.53 268.62C161.12 259.449 173.658 250.434 186.144 241.576C198.734 232.613 211.428 223.806 224.226 215.156C225.266 214.427 226.515 213.697 227.972 212.968C229.428 212.134 230.677 211.248 231.717 210.31L232.03 210.154L232.81 209.529V209.685C234.267 208.747 235.619 207.809 236.868 206.871C238.116 205.933 239.469 205.047 240.926 204.213L247.169 200.149L257.314 193.583L257.626 193.427C268.863 186.236 280.257 179.305 291.806 172.635C303.356 165.861 315.217 159.66 327.391 154.032C328.432 153.928 329.264 153.667 329.888 153.251C330.513 152.73 331.397 152.365 332.542 152.156C327.027 154.866 321.98 157.367 317.402 159.66C312.928 161.953 308.402 164.454 303.824 167.164L301.327 168.727C301.743 168.623 302.211 168.414 302.731 168.102C303.252 167.789 303.668 167.581 303.98 167.476L304.136 167.633L300.858 169.665L298.049 171.072C297.737 171.28 297.425 171.541 297.113 171.854C296.8 172.166 296.384 172.531 295.864 172.948L286.968 178.107C286.343 178.419 285.719 178.784 285.095 179.201C284.575 179.618 284.054 180.139 283.534 180.764C282.702 182.015 281.401 183.109 279.632 184.047C277.863 184.985 276.303 185.819 274.95 186.548C275.158 186.548 275.262 186.6 275.262 186.705C275.262 186.809 275.158 186.965 274.95 187.174C274.742 187.382 274.586 187.538 274.482 187.643L271.048 190.144C270.528 190.457 269.696 191.03 268.551 191.864C267.51 192.697 267.042 193.27 267.146 193.583C263.192 195.98 259.291 198.429 255.441 200.931C251.591 203.328 247.845 205.777 244.203 208.278L243.735 208.591C243.631 208.591 243.475 208.643 243.267 208.747C243.059 208.851 242.955 208.955 242.955 209.06C242.955 209.164 243.007 209.216 243.111 209.216H243.267C243.267 209.32 243.111 209.372 242.799 209.372C242.382 209.581 242.174 209.737 242.174 209.841H242.643C242.747 209.841 242.539 210.05 242.018 210.467L241.082 211.248L241.394 210.623L239.833 211.717H240.145L239.677 212.186H239.833C239.313 212.603 238.897 212.864 238.585 212.968C238.793 212.759 239.001 212.603 239.209 212.499C239.417 212.29 239.625 212.082 239.833 211.873L238.741 212.499L238.897 212.342C238.897 212.238 239.001 212.134 239.209 212.03L239.677 211.561H239.521C239.313 211.769 238.845 212.03 238.116 212.342C237.492 212.655 237.18 212.916 237.18 213.124V213.28C237.284 213.28 237.388 213.228 237.492 213.124C237.7 212.916 237.856 212.811 237.96 212.811C237.752 213.02 237.544 213.228 237.336 213.437C237.128 213.645 236.92 213.854 236.712 214.062L236.868 213.906L236.556 214.062H236.4L235.775 214.687V214.531L234.839 215.156L235.151 214.844C235.047 214.844 234.891 214.896 234.683 215L235.307 214.531L234.215 215.156C233.278 215.99 232.238 216.928 231.093 217.97C230.053 218.908 229.012 219.533 227.972 219.846C227.868 219.95 227.607 220.002 227.191 220.002L225.631 221.566C225.318 221.774 224.902 222.035 224.382 222.347C223.862 222.556 223.497 222.764 223.289 222.973V222.66L223.445 222.504C223.237 222.504 222.977 222.66 222.665 222.973C222.457 223.285 222.249 223.546 222.041 223.754L222.353 223.598L222.197 223.754L222.041 224.067L222.197 223.911L221.104 225.161C220.584 225.37 220.116 225.578 219.7 225.787C219.283 225.891 218.919 226.151 218.607 226.568C218.711 226.568 218.815 226.568 218.919 226.568C219.127 226.464 219.283 226.412 219.387 226.412C218.763 226.725 218.191 227.037 217.671 227.35C217.255 227.558 216.786 227.923 216.266 228.444V228.288L215.017 229.226V229.069L213.301 230.007V230.164L213.457 230.32C213.665 230.112 213.873 229.955 214.081 229.851L214.549 229.695L214.393 229.851L213.925 230.476C213.613 230.685 213.197 230.998 212.676 231.414C212.156 231.727 211.844 231.988 211.74 232.196H211.896C211.792 232.3 211.688 232.457 211.584 232.665C211.48 232.769 211.324 232.873 211.116 232.978L210.179 233.603L210.335 233.447H210.179C210.283 233.238 210.491 233.082 210.803 232.978C211.116 232.873 211.324 232.717 211.428 232.509C211.22 232.509 211.012 232.561 210.803 232.665L211.116 232.196C210.491 232.509 210.075 232.926 209.867 233.447C209.659 233.864 209.295 234.072 208.774 234.072L208.462 233.759C208.254 233.968 208.098 234.176 207.994 234.385C207.89 234.489 207.734 234.593 207.526 234.697L204.717 236.417H204.873L203.624 237.199L204.404 236.573V236.417C204.092 236.521 203.728 236.782 203.312 237.199L201.283 238.918C201.075 239.127 200.815 239.335 200.503 239.543C200.294 239.648 200.034 239.804 199.722 240.012C199.514 240.221 199.358 240.429 199.254 240.638C199.254 240.742 199.462 240.638 199.878 240.325C200.398 239.908 200.711 239.7 200.815 239.7C200.815 239.804 200.659 239.96 200.346 240.169V240.325C200.034 240.533 199.774 240.69 199.566 240.794L198.786 241.419L198.63 241.576L198.942 241.419L198.63 241.732L196.288 243.452V243.139L195.508 243.608C194.988 243.816 194.364 244.181 193.635 244.702C192.907 245.119 192.127 245.588 191.294 246.109C190.566 246.63 189.941 247.099 189.421 247.516L189.265 247.829C189.161 247.933 189.057 248.037 188.953 248.141C188.953 248.037 189.109 247.829 189.421 247.516C189.213 247.516 188.953 247.672 188.641 247.985C188.329 248.298 187.965 248.61 187.548 248.923L188.173 248.61C188.069 248.819 187.965 248.975 187.86 249.079L187.392 249.548C187.496 249.34 187.548 249.184 187.548 249.079L187.392 249.236C187.184 249.236 186.872 249.392 186.456 249.705C186.144 250.017 185.675 250.33 185.051 250.643L184.427 251.112C184.219 251.424 183.855 251.789 183.334 252.206C182.814 252.623 182.346 252.988 181.93 253.3L181.617 253.769C180.993 254.29 180.317 254.811 179.589 255.333H179.745L179.276 255.645V255.801C179.38 255.801 179.797 255.593 180.525 255.176C179.693 255.801 179.276 256.114 179.276 256.114ZM113.569 258.928L113.257 259.241H113.413C112.789 259.553 112.06 260.179 111.228 261.117C110.396 261.95 109.251 262.784 107.794 263.618C107.482 264.139 107.066 264.608 106.546 265.025C106.129 265.337 105.661 265.702 105.141 266.119L104.829 266.432L102.8 268.151L103.268 267.682C102.956 267.891 102.592 268.203 102.176 268.62C101.863 268.933 101.499 269.246 101.083 269.558L100.771 269.871C100.355 270.184 99.8345 270.6 99.2102 271.122L96.4008 273.466V273.31L96.2448 273.623L94.684 274.717L95.4644 274.092L93.9036 275.03H94.0597L92.8111 276.28C92.7071 276.28 92.3949 276.489 91.8747 276.906L87.8167 280.345C88.441 279.928 89.1174 279.511 89.8457 279.094C90.6781 278.677 91.4064 278.156 92.0307 277.531L104.205 270.027C104.933 269.506 105.609 268.985 106.234 268.464C106.962 267.943 107.638 267.422 108.262 266.901L108.419 267.057L107.014 268.151L136.2 249.705C147.541 242.618 158.727 235.531 169.756 228.444C180.889 221.253 192.127 214.166 203.468 207.184C203.78 206.975 204.196 206.767 204.717 206.558L205.965 205.933L204.404 207.027C200.242 209.424 196.184 211.873 192.231 214.375C188.381 216.876 184.479 219.481 180.525 222.191L175.218 225.943C173.45 227.402 171.473 228.757 169.288 230.007C167.207 231.258 165.126 232.561 163.045 233.916L162.889 234.072L162.42 234.228C160.339 235.687 158.31 237.146 156.333 238.605C154.356 240.065 152.275 241.524 150.09 242.983L130.113 256.114C129.905 256.323 129.281 256.792 128.24 257.521C127.2 258.251 126.055 259.084 124.806 260.022C123.662 260.856 122.517 261.638 121.373 262.367C120.332 262.993 119.76 263.305 119.656 263.305C119.344 263.514 119.084 263.722 118.876 263.931C118.667 264.035 118.407 264.243 118.095 264.556V264.399C117.159 265.025 116.274 265.598 115.442 266.119C114.714 266.536 113.933 267.057 113.101 267.682C111.748 268.516 110.448 269.402 109.199 270.34C107.95 271.278 106.65 272.216 105.297 273.154L105.141 273.31V273.154L104.048 274.092C103.84 274.3 103.476 274.509 102.956 274.717C102.748 274.821 102.592 274.926 102.488 275.03L101.863 275.499L101.395 275.968C100.979 276.176 100.511 276.489 99.9905 276.906L98.5859 278C98.0656 278.313 97.7014 278.521 97.4933 278.625C97.2852 278.834 97.0251 279.042 96.713 279.251C96.4008 279.355 96.1407 279.459 95.9326 279.563L95.3083 280.032H95.1522C94.4239 280.866 93.4874 281.596 92.3429 282.221C91.3024 282.846 90.2619 283.68 89.2214 284.722L87.6607 285.504V285.347C87.3485 285.556 87.0364 285.816 86.7242 286.129C86.5161 286.442 86.204 286.65 85.7878 286.754L85.4756 286.911L83.4466 288.318H83.6027C82.6663 288.839 81.8339 289.36 81.1055 289.881C80.4812 290.506 79.961 291.027 79.5448 291.444V291.132C79.4407 291.236 79.3367 291.288 79.2326 291.288L79.3887 291.132L79.2326 290.975L78.4523 291.6L78.6083 291.444L77.984 291.757L77.5158 292.226C77.2037 292.434 76.7875 292.747 76.2672 293.164L75.1747 294.102L76.1111 293.164L75.4868 293.633V293.476C75.1747 293.998 74.5504 294.466 73.6139 294.883C72.6775 295.404 72.2093 295.613 72.2093 295.509C72.1052 296.03 71.7931 296.395 71.2728 296.603H71.4289C71.3249 296.811 71.0647 297.02 70.6485 297.228L69.3999 298.323C68.9837 298.739 68.4115 299.156 67.6831 299.573C67.7872 299.469 67.9432 299.313 68.1513 299.104C68.4635 299 68.6196 298.896 68.6196 298.792C68.0993 299 67.423 299.417 66.5906 300.042C65.7582 300.772 65.238 301.293 65.0299 301.605L63.6252 302.231L63.4691 302.387V302.231L61.128 304.107H60.8158L58.7869 305.67C58.6828 305.878 58.5268 305.983 58.3187 305.983H58.1626L57.6944 306.608C57.6944 306.504 57.5383 306.66 57.2261 307.077C57.4342 306.973 57.5903 306.868 57.6944 306.764C57.6944 306.764 57.7464 306.712 57.8504 306.608L56.914 307.702L55.9775 308.484C55.5613 308.901 55.1972 309.161 54.885 309.266L55.1972 309.109H54.885C54.4688 309.109 54.2087 309.266 54.1046 309.578C54.2087 309.474 54.3127 309.422 54.4168 309.422V309.578C54.4168 309.682 54.3127 309.839 54.1046 310.047C53.8965 310.36 53.6364 310.62 53.3243 310.829L53.1682 310.672C53.1682 310.777 53.1162 310.881 53.0121 310.985L52.7 311.298V310.829L53.4803 310.203L53.7925 310.047L53.9486 309.734C53.7405 309.734 53.5324 309.787 53.3243 309.891L53.1682 310.047V309.891L45.0523 316.144C43.6997 317.186 42.347 318.176 40.9944 319.114C39.6417 320.156 38.2371 320.938 36.7804 321.459L36.9364 321.146C36.7283 321.355 36.4682 321.459 36.1561 321.459H36L37.7168 320.208L37.5607 320.365C37.4567 320.365 37.8209 320.052 38.6533 319.427C39.1735 318.906 39.5897 318.489 39.9019 318.176L39.5897 318.333C39.3816 318.437 39.2255 318.541 39.1215 318.645C38.9134 318.749 38.7573 318.801 38.6533 318.801L38.9654 318.489C38.9654 318.385 39.0695 318.228 39.2776 318.02L39.7458 317.707L39.9019 317.395C40.0059 317.29 40.11 317.186 40.214 317.082H39.7458C39.5377 317.082 39.2776 317.134 38.9654 317.238C38.6533 317.447 38.3931 317.551 38.185 317.551H38.029C38.133 317.134 38.7053 316.561 39.7458 315.831C40.7863 315.206 41.5146 314.737 41.9308 314.424L40.6822 314.737L41.9308 313.799C41.3065 313.278 41.1505 312.653 41.4626 311.923C41.1505 311.715 41.1505 311.454 41.4626 311.141L40.9944 311.454V311.298C40.5782 311.298 40.3181 311.454 40.214 311.767H40.5262V311.923L40.3701 312.079C40.266 312.184 40.11 312.34 39.9019 312.548C39.3816 312.965 39.0174 313.226 38.8093 313.33C39.1215 313.017 39.3296 312.809 39.4336 312.705L38.8093 313.017L38.9654 312.861H38.6533L38.9654 312.705L39.1215 312.392C39.1215 312.6 39.1735 312.705 39.2776 312.705C39.3816 312.705 39.5897 312.548 39.9019 312.236C40.11 312.132 40.3181 312.027 40.5262 311.923H40.214L39.7458 312.079C39.6417 312.184 39.5377 312.236 39.4336 312.236C39.3296 312.236 39.3296 312.132 39.4336 311.923L38.4972 312.392C39.0174 311.871 39.5897 311.402 40.214 310.985C40.8383 310.568 41.4106 310.099 41.9308 309.578L41.7748 309.422L41.6187 309.578C41.5146 309.682 41.3065 309.787 40.9944 309.891L42.3991 308.797H42.0869L44.1159 307.39C44.0118 307.598 43.8037 307.859 43.4916 308.171C43.1794 308.484 42.9713 308.744 42.8673 308.953L43.0234 309.109L42.7112 309.578H42.8673L42.0869 309.891H42.5551L44.1159 308.171C44.0118 308.171 43.6997 308.38 43.1794 308.797C43.6997 308.171 44.0638 307.859 44.2719 307.859L44.7402 307.702L45.5205 307.077L44.8962 307.39L45.5205 306.921L44.428 307.546L44.7402 307.233H44.5841C45.1043 306.921 45.8847 306.347 46.9252 305.514C47.8617 304.784 48.4339 304.471 48.642 304.576C48.3299 304.68 47.9657 304.836 47.5495 305.045C47.1333 305.357 46.9252 305.618 46.9252 305.826L48.3299 305.045C48.642 304.628 49.0062 304.263 49.4224 303.95L50.5149 302.856C50.723 302.96 50.9832 302.804 51.2953 302.387C51.5034 302.074 51.8676 301.814 52.3878 301.605L52.0757 301.449L52.856 300.667H52.5439C52.6479 300.563 52.752 300.511 52.856 300.511L53.3243 300.199H53.0121C53.1162 300.094 53.2202 299.938 53.3243 299.73C53.5324 299.521 53.7925 299.261 54.1046 298.948L53.7925 299.417L54.885 298.792H54.7289L54.885 298.479H54.7289L54.4168 298.792C54.833 298.27 55.1972 297.958 55.5093 297.854L55.3532 298.01L55.0411 298.166C54.937 298.27 54.885 298.427 54.885 298.635C55.0931 298.635 55.2492 298.583 55.3532 298.479L55.1972 298.635C54.9891 298.844 54.885 299 54.885 299.104L55.9775 298.01C56.1856 298.01 56.2897 297.906 56.2897 297.697V297.541H56.1336C56.2377 297.437 56.3417 297.228 56.4458 296.916L56.6018 297.072C56.8099 297.072 56.914 297.02 56.914 296.916C56.914 296.916 57.018 296.864 57.2261 296.759V296.916L57.6944 296.447L57.5383 296.759C57.7464 296.551 58.0065 296.342 58.3187 296.134C58.6308 295.926 58.9429 295.717 59.2551 295.509C60.8158 293.737 62.2205 292.538 63.4691 291.913C64.7177 291.288 65.342 290.715 65.342 290.194H65.1859C66.4345 289.36 67.5791 288.474 68.6196 287.536C69.7641 286.702 70.8566 285.868 71.8971 285.035L72.0532 284.878L92.0307 268.933C92.551 268.516 93.1753 268.047 93.9036 267.526C94.632 266.901 95.3603 266.328 96.0887 265.806C96.817 265.285 97.4933 264.764 98.1176 264.243C98.846 263.722 99.2622 263.253 99.3662 262.836L105.765 257.99C106.286 257.573 106.91 257.104 107.638 256.583C108.471 255.958 109.303 255.333 110.135 254.707C110.968 254.082 111.696 253.509 112.32 252.988C112.945 252.466 113.309 252.05 113.413 251.737H113.101C119.032 246.839 124.962 241.993 130.893 237.199C136.928 232.404 142.911 227.454 148.842 222.347C153.94 218.074 158.935 213.854 163.825 209.685C168.819 205.516 173.606 201.087 178.184 196.397L177.091 197.648L178.964 195.772L176.623 198.273C176.415 198.481 176.207 198.69 175.999 198.898L175.687 199.367C175.583 199.471 175.479 199.576 175.375 199.68L173.502 201.712C172.357 202.754 171.317 203.744 170.38 204.682C169.444 205.62 168.507 206.558 167.571 207.496L169.288 206.089L171.161 204.057C171.473 203.849 171.733 203.64 171.941 203.432C172.149 203.223 172.357 203.067 172.565 202.963L170.848 204.682C170.224 205.308 169.6 205.881 168.975 206.402L167.571 207.653L166.322 208.747L167.727 207.496C167.415 207.6 167.155 207.757 166.946 207.965C166.842 208.174 166.634 208.382 166.322 208.591L163.981 210.779V211.092L164.918 210.154C164.813 210.362 164.605 210.571 164.293 210.779C164.605 210.779 164.813 210.675 164.918 210.467V210.154L165.074 209.998C165.282 209.893 165.438 209.841 165.542 209.841L165.698 209.685L165.854 209.841C166.166 209.841 166.582 209.529 167.103 208.903C167.727 208.278 168.403 207.653 169.132 207.027C169.86 206.298 170.484 205.725 171.004 205.308C171.525 204.787 171.837 204.578 171.941 204.682C172.045 204.682 171.525 205.256 170.38 206.402C169.236 207.444 167.883 208.695 166.322 210.154C164.761 211.613 163.149 213.124 161.484 214.687C159.923 216.146 158.675 217.293 157.738 218.127V218.283L162.264 214.375L157.426 218.908C157.322 219.533 157.062 220.055 156.646 220.471C156.333 220.888 155.917 221.357 155.397 221.878L144.316 232.509C144.004 232.821 143.171 233.551 141.818 234.697C140.57 235.844 139.061 237.199 137.292 238.762C135.628 240.221 133.807 241.836 131.83 243.608C129.853 245.275 128.032 246.839 126.367 248.298C124.702 249.653 123.35 250.799 122.309 251.737C121.269 252.675 120.748 253.092 120.748 252.988V252.831C120.436 253.248 120.124 253.613 119.812 253.926C119.5 254.134 119.136 254.447 118.719 254.864L118.563 254.707C117.731 255.541 116.847 256.27 115.91 256.896C114.974 257.521 114.193 258.199 113.569 258.928ZM85.3195 286.129C85.3195 286.233 85.4756 286.181 85.7878 285.973C86.0999 285.66 86.36 285.347 86.5681 285.035C86.256 285.347 85.9438 285.608 85.6317 285.816C85.4236 286.025 85.3195 286.129 85.3195 286.129ZM168.195 207.34C168.507 207.027 168.871 206.715 169.288 206.402C169.704 205.985 170.12 205.516 170.536 204.995C170.224 205.516 169.808 205.985 169.288 206.402L168.195 207.34ZM194.572 244.859C194.572 244.65 194.78 244.494 195.196 244.39C195.404 244.285 195.612 244.129 195.82 243.921L195.352 244.39C194.832 244.702 194.572 244.859 194.572 244.859ZM164.918 209.998C164.918 209.998 165.074 209.841 165.386 209.529C165.802 209.216 166.114 208.955 166.322 208.747L165.074 209.998H164.918ZM170.536 262.993C170.328 263.201 170.224 263.357 170.224 263.462L169.912 263.618V263.462L170.536 262.993ZM195.508 216.407C195.508 216.407 195.248 216.615 194.728 217.032L195.508 216.407ZM151.183 275.968C151.183 275.864 150.923 276.02 150.403 276.437C150.507 276.437 150.767 276.28 151.183 275.968ZM212.208 232.196L212.832 231.727L212.52 232.04L212.208 232.196ZM190.67 219.69C190.358 220.002 190.046 220.263 189.733 220.471L190.67 219.69ZM328.015 153.72C328.015 153.72 327.807 153.824 327.391 154.032L328.015 153.72ZM82.8223 282.221C83.0304 282.221 83.3426 282.065 83.7588 281.752L82.8223 282.221ZM175.062 199.68L174.126 200.618C174.542 200.305 174.854 199.993 175.062 199.68ZM195.352 215.313V215.469L195.82 215L195.352 215.313ZM171.473 262.524C171.16 262.732 170.952 262.836 170.848 262.836L171.473 262.524ZM180.993 254.551C180.889 254.759 180.733 254.968 180.525 255.176L180.993 254.551ZM180.993 254.551C180.993 254.551 181.045 254.447 181.149 254.238L180.993 254.551ZM149.934 277.218C149.83 277.323 149.726 277.375 149.622 277.375L149.934 277.218ZM164.293 266.901C164.293 266.692 164.293 266.692 164.293 266.901V266.901ZM85.7878 281.908V281.752C85.5797 281.96 85.4756 282.065 85.4756 282.065L85.7878 281.908ZM205.341 206.871C205.341 206.871 205.445 206.819 205.653 206.715L205.185 207.027L205.341 206.871ZM182.086 253.613C181.878 253.821 181.722 253.926 181.617 253.926L182.086 253.613ZM215.017 229.382C215.017 229.382 214.861 229.486 214.549 229.695C214.653 229.591 214.809 229.486 215.017 229.382ZM38.8093 319.739C38.7053 319.739 38.7053 319.739 38.8093 319.739V319.739ZM157.426 271.278L157.738 271.122L157.894 270.965L157.426 271.278ZM203.312 237.355C203.208 237.563 203.208 237.563 203.312 237.355V237.355ZM162.889 267.682C162.889 267.578 162.889 267.578 162.889 267.682V267.682ZM39.1215 318.176C39.1215 318.176 39.0174 318.228 38.8093 318.333L39.1215 318.176ZM112.633 267.995C112.841 267.891 112.997 267.839 113.101 267.839C112.789 267.943 112.633 267.995 112.633 267.995ZM187.704 221.878C187.704 221.878 187.86 221.774 188.173 221.566L187.86 221.722L187.704 221.878Z" fill="white"/>
<path d="M251.288 248.767C250.976 249.809 250.143 250.643 248.79 251.268C247.438 251.789 246.293 252.31 245.357 252.831C241.923 254.603 238.542 256.687 235.212 259.084C231.882 261.377 228.605 263.722 225.379 266.119C222.778 267.891 220.177 269.61 217.576 271.278C215.078 272.841 212.581 274.561 210.084 276.437C207.587 278.208 205.298 280.084 203.217 282.065C201.136 283.94 199.055 285.764 196.974 287.536C196.87 287.536 196.454 287.692 195.725 288.005C194.997 288.318 194.581 288.474 194.477 288.474L191.043 290.819C191.251 290.61 191.407 290.402 191.511 290.194C191.615 290.089 191.979 289.933 192.604 289.725C192.5 289.725 192.396 289.725 192.292 289.725C192.187 289.829 192.031 289.881 191.823 289.881C194.425 287.484 197.026 285.139 199.627 282.846C202.228 280.449 204.673 278 206.963 275.499C208.211 274.665 209.304 273.779 210.24 272.841C211.281 271.903 212.321 270.965 213.362 270.027C213.57 269.819 213.778 269.558 213.986 269.246C214.298 268.829 214.61 268.516 214.922 268.308C216.171 267.161 217.42 266.119 218.668 265.181C220.021 264.139 221.477 263.045 223.038 261.898C223.35 261.69 223.975 261.169 224.911 260.335C225.848 259.501 226.784 258.667 227.72 257.834C228.657 256.896 229.541 256.114 230.374 255.489C231.206 254.759 231.674 254.395 231.778 254.395C231.57 254.186 231.154 254.186 230.53 254.395C230.01 254.603 229.385 254.864 228.657 255.176C228.033 255.489 227.408 255.801 226.784 256.114C226.16 256.427 225.796 256.635 225.691 256.739C225.067 256.948 224.495 257.208 223.975 257.521L213.049 261.898L209.616 263.462C208.887 263.774 208.263 264.087 207.743 264.399C207.223 264.712 207.015 264.921 207.119 265.025C201.812 267.63 196.766 270.392 191.979 273.31C187.297 276.228 182.875 279.407 178.713 282.846L178.089 283.159L171.065 288.943L163.574 295.04C162.429 295.873 161.285 296.759 160.14 297.697C158.892 298.739 157.643 299.677 156.394 300.511C156.186 300.824 155.822 301.136 155.302 301.449C154.99 301.658 154.521 301.97 153.897 302.387C154.417 301.97 154.73 301.658 154.834 301.449C155.146 301.136 155.406 300.876 155.614 300.667C155.926 300.355 156.186 299.99 156.394 299.573C156.602 299.261 156.915 299 157.331 298.792C157.123 298.792 157.175 298.531 157.487 298.01C157.799 297.593 158.163 297.333 158.579 297.228C159.1 296.29 159.984 295.404 161.233 294.571L168.568 287.223H168.1C167.892 287.119 168.152 286.806 168.88 286.285C169.505 285.66 170.025 285.139 170.441 284.722L170.285 284.878H169.973C172.574 282.169 175.279 279.511 178.089 276.906C180.898 274.196 183.707 271.591 186.517 269.089C186.933 268.568 187.245 268.099 187.453 267.682C187.765 267.161 187.765 266.901 187.453 266.901C189.222 265.442 191.043 264.035 192.916 262.68C194.789 261.221 196.558 259.71 198.222 258.146L208.991 247.985L218.98 238.918C222.31 235.896 225.796 233.03 229.437 230.32C231.102 229.174 232.715 227.975 234.276 226.725C235.836 225.37 237.449 224.067 239.114 222.816C238.073 223.442 236.877 224.171 235.524 225.005C234.276 225.839 233.755 226.412 233.963 226.725L220.229 235.948L220.385 235.792H220.229L220.697 235.166L222.57 233.759C227.252 230.216 231.882 226.672 236.461 223.129C241.143 219.586 245.877 216.094 250.663 212.655C253.577 210.571 256.542 208.434 259.56 206.246C262.577 203.953 265.594 201.764 268.612 199.68L269.08 199.524V199.367C269.6 199.055 270.225 198.533 270.953 197.804L272.202 197.179C273.554 196.241 274.959 195.303 276.416 194.365C277.976 193.427 279.485 192.541 280.942 191.707C281.254 191.499 281.41 191.342 281.41 191.238C281.514 191.03 281.722 190.873 282.034 190.769H281.878L282.19 190.457L282.659 190.144L282.503 190.457L282.19 190.613H282.659C283.907 189.883 285.104 189.206 286.248 188.581C287.393 187.851 288.589 187.174 289.838 186.548H289.994C290.098 186.548 290.202 186.496 290.306 186.392C290.514 186.288 290.722 186.184 290.931 186.079C290.827 186.6 290.306 187.069 289.37 187.486C288.537 187.799 287.913 188.06 287.497 188.268C286.873 188.581 286.248 188.945 285.624 189.362C285.104 189.779 284.636 190.248 284.219 190.769C284.219 190.978 284.063 191.186 283.751 191.395C283.543 191.603 283.439 191.811 283.439 192.02C287.185 189.519 290.931 187.122 294.676 184.829C298.214 182.432 301.908 180.087 305.758 177.794C305.862 177.794 306.122 177.794 306.538 177.794C306.226 178.002 305.81 178.211 305.289 178.419C304.873 178.524 304.509 178.68 304.197 178.888C303.885 179.409 303.417 179.826 302.792 180.139C302.168 180.452 301.544 180.868 300.919 181.39L297.486 184.047C297.278 184.047 296.809 184.412 296.081 185.141C295.457 185.767 294.989 186.184 294.676 186.392C294.468 186.913 294 187.382 293.272 187.799C292.647 188.112 292.075 188.372 291.555 188.581L288.121 191.551C285.312 193.635 282.503 195.824 279.693 198.117C276.884 200.305 274.023 202.337 271.109 204.213C271.005 204.422 270.381 204.891 269.236 205.62C268.196 206.35 266.999 207.236 265.647 208.278C263.045 210.675 260.444 212.968 257.843 215.156C255.242 217.241 252.536 219.377 249.727 221.566L248.01 222.816C247.802 222.921 247.49 223.129 247.074 223.442L247.23 223.598C247.022 223.598 246.866 223.65 246.762 223.754C246.657 223.859 246.553 223.963 246.449 224.067L246.137 224.223L245.981 224.38L246.137 224.536L245.825 224.692L244.733 225.63C244.004 226.151 243.224 226.725 242.391 227.35C241.559 227.975 240.779 228.6 240.05 229.226L239.114 230.007H239.426C239.01 230.32 238.542 230.633 238.021 230.945C237.605 231.154 237.293 231.362 237.085 231.571C237.189 231.466 237.241 231.362 237.241 231.258C237.345 231.05 237.553 230.841 237.865 230.633L237.085 231.102V231.727C236.877 232.04 236.565 232.352 236.148 232.665C235.732 232.873 235.264 233.082 234.744 233.29V233.134L234.588 233.29H234.744V233.447L234.119 233.759H234.744C234.536 234.28 234.276 234.489 233.963 234.385L234.119 234.072L233.807 234.541H234.119C233.911 234.645 233.807 234.645 233.807 234.541C233.183 234.749 232.663 235.062 232.247 235.479C231.934 235.896 231.882 236.208 232.091 236.417C231.986 236.521 231.882 236.573 231.778 236.573L231.622 236.73C231.726 236.625 231.518 236.73 230.998 237.042C230.582 237.355 230.218 237.615 229.905 237.824L228.969 238.293L228.813 238.449H229.125C228.709 238.658 228.137 239.022 227.408 239.543C226.68 240.065 226.368 240.377 226.472 240.481L226.316 240.638C226.108 240.846 225.952 240.95 225.848 240.95L224.287 242.357C224.287 242.566 224.391 242.566 224.599 242.357C224.287 242.774 223.923 243.139 223.506 243.452C223.09 243.66 222.778 243.868 222.57 244.077C222.466 244.285 222.31 244.442 222.102 244.546L221.79 244.859C221.477 245.067 221.061 245.328 220.541 245.64V245.953C220.333 245.953 220.229 246.005 220.229 246.109V245.953L219.448 246.266L219.605 246.109L219.292 246.266C219.501 246.266 219.709 246.213 219.917 246.109L217.888 247.829H218.2C217.992 247.933 217.68 248.037 217.263 248.141C216.951 248.246 216.847 248.402 216.951 248.61L216.795 248.767C216.899 249.288 216.691 249.653 216.171 249.861C216.067 250.069 215.651 250.434 214.922 250.955C214.298 251.372 213.778 251.737 213.362 252.05L211.333 253.3L211.177 253.613L210.864 253.926C210.552 254.134 210.448 254.29 210.552 254.395H210.24V254.551C210.136 254.551 209.98 254.603 209.772 254.707L206.65 257.365C206.338 257.573 206.13 257.782 206.026 257.99C205.922 258.199 205.766 258.459 205.558 258.772L205.402 258.928C203.841 260.179 202.384 261.481 201.032 262.836C199.783 264.087 198.482 265.285 197.13 266.432C195.569 267.578 194.164 268.777 192.916 270.027C191.667 271.174 190.263 272.268 188.702 273.31L186.517 275.03C186.725 275.03 186.933 274.978 187.141 274.873L187.297 275.03L188.078 274.561L187.921 274.717C190.419 272.633 193.124 270.705 196.037 268.933C198.951 267.161 201.812 265.39 204.621 263.618L205.246 263.305L205.402 263.149H205.558L207.587 261.898C207.379 261.898 207.223 261.95 207.119 262.055H206.963L208.211 261.429C208.731 261.221 209.148 261.012 209.46 260.804C211.957 259.345 214.558 257.938 217.263 256.583C219.969 255.228 222.674 253.821 225.379 252.362L223.975 252.831C224.911 252.31 225.796 251.893 226.628 251.581C227.564 251.268 228.345 250.903 228.969 250.486L231.154 249.705C231.778 249.184 232.403 248.767 233.027 248.454C233.755 248.141 234.536 247.829 235.368 247.516C235.68 247.412 235.888 247.203 235.992 246.891L238.49 245.797C238.594 245.692 238.958 245.536 239.582 245.328C240.31 245.015 241.039 244.702 241.767 244.39C242.6 244.077 243.276 243.816 243.796 243.608C244.42 243.295 244.681 243.139 244.576 243.139C245.201 242.826 246.033 242.462 247.074 242.045C248.218 241.628 249.311 241.367 250.351 241.263C252.016 240.638 253.733 240.012 255.502 239.387C257.271 238.762 258.987 238.136 260.652 237.511C260.652 237.615 260.86 237.667 261.276 237.667H261.901C260.964 237.98 260.132 238.345 259.404 238.762C258.883 239.074 258.259 239.387 257.531 239.7C256.906 239.908 256.49 240.012 256.282 240.012C256.386 240.221 256.386 240.429 256.282 240.638C256.178 240.846 256.074 240.95 255.97 240.95C255.658 241.159 255.346 241.315 255.033 241.419C254.721 241.419 254.409 241.524 254.097 241.732L253.941 241.888H253.629C253.629 241.993 253.421 242.201 253.004 242.514L251.912 243.608C251.808 243.816 252.068 243.816 252.692 243.608C253.317 243.295 253.577 243.191 253.473 243.295C253.369 243.712 253.109 244.077 252.692 244.39C252.276 244.702 251.86 245.015 251.444 245.328L251.912 245.797L251.288 248.767ZM199.315 284.722C199.419 284.514 199.471 284.409 199.471 284.409C199.575 284.305 199.731 284.149 199.939 283.94C199.627 284.149 199.367 284.305 199.159 284.409C199.055 284.514 198.899 284.67 198.691 284.878C198.482 285.087 198.378 285.243 198.378 285.347C198.066 285.66 197.702 285.921 197.286 286.129C196.974 286.337 196.714 286.598 196.506 286.911H196.662L199.315 284.722ZM170.441 284.722C170.961 284.618 171.326 284.357 171.534 283.94L170.441 284.722ZM218.512 237.042C218.616 236.73 218.876 236.573 219.292 236.573L218.512 237.042ZM216.639 238.293L216.483 238.449V238.293L216.795 238.136L216.951 237.824L217.107 238.136L216.639 238.293ZM232.715 235.948C232.715 236.156 232.507 236.313 232.091 236.417L232.715 235.948ZM217.576 237.511L218.044 237.199C218.044 237.407 217.888 237.511 217.576 237.511ZM190.263 292.069C190.263 291.861 190.263 291.861 190.263 292.069V292.069ZM219.448 236.261H219.605L219.292 236.573V236.417L219.448 236.261ZM190.575 291.288L190.731 290.975V291.132L190.575 291.288ZM177.777 283.628C177.777 283.732 177.777 283.732 177.777 283.628V283.628ZM200.876 283.159C200.563 283.367 200.407 283.524 200.407 283.628L200.876 283.159ZM188.702 293.007C188.91 292.903 189.066 292.851 189.17 292.851L188.702 293.007Z" fill="white"/>
<path d="M235.872 271.903C232.438 274.196 229.108 276.801 225.883 279.72C227.34 279.199 228.588 279.094 229.629 279.407C231.398 278.782 233.218 278.104 235.091 277.375C236.964 276.645 238.681 275.968 240.242 275.342C241.907 274.613 243.311 274.04 244.456 273.623C245.704 273.102 246.537 272.737 246.953 272.529L269.896 263.931C270 263.931 270.052 263.931 270.052 263.931C270.156 263.826 270.312 263.774 270.52 263.774C271.353 263.462 272.549 262.993 274.11 262.367C275.775 261.742 277.544 261.065 279.416 260.335C281.289 259.605 283.058 258.928 284.723 258.303C286.492 257.573 287.844 257.052 288.781 256.739C290.342 256.218 291.85 255.697 293.307 255.176C294.868 254.655 296.429 254.082 297.989 253.457C298.926 253.04 299.914 252.675 300.955 252.362C302.099 251.945 303.088 251.633 303.92 251.424L300.487 252.519L298.77 253.613C298.249 253.821 297.781 254.082 297.365 254.395C296.949 254.603 296.481 254.811 295.96 255.02C294.92 255.437 293.359 256.062 291.278 256.896C289.301 257.625 287.116 258.459 284.723 259.397C282.434 260.231 280.249 261.065 278.168 261.898C276.087 262.732 274.526 263.409 273.486 263.931C273.278 263.931 272.705 264.243 271.769 264.868L270.208 265.337C268.959 266.067 267.607 266.744 266.15 267.37C264.693 267.891 263.185 268.412 261.624 268.933C261.728 269.141 261.364 269.454 260.531 269.871C259.803 270.288 258.919 270.757 257.878 271.278C256.838 271.799 255.797 272.268 254.757 272.685C253.716 273.102 253.092 273.362 252.884 273.466C250.803 274.821 248.358 276.02 245.548 277.062C242.843 278 240.294 278.938 237.901 279.876L236.496 280.97C236.808 280.762 237.172 280.658 237.588 280.658C238.005 280.658 238.473 280.605 238.993 280.501C238.057 280.918 237.068 281.283 236.028 281.596C234.987 281.804 233.999 282.065 233.062 282.377C232.542 282.69 231.814 283.055 230.877 283.471C229.941 283.784 229.317 284.201 229.004 284.722L226.975 285.66C225.415 286.598 223.698 287.275 221.825 287.692L217.767 288.474C217.351 288.682 216.831 288.891 216.206 289.099C215.79 289.933 214.958 290.663 213.709 291.288C213.605 291.392 213.501 291.444 213.397 291.444C213.085 291.653 212.981 291.653 213.085 291.444C212.981 291.444 212.929 291.496 212.929 291.6V291.444C212.929 291.236 213.189 290.923 213.709 290.506C213.293 290.819 212.981 290.975 212.773 290.975C212.773 290.871 212.825 290.767 212.929 290.663C213.033 290.663 213.085 290.558 213.085 290.35L212.929 290.506C212.929 290.402 212.981 290.35 213.085 290.35C213.085 290.35 213.085 290.298 213.085 290.194C213.085 290.089 212.721 290.141 211.992 290.35C211.16 290.558 210.588 290.61 210.275 290.506C210.379 290.402 210.484 290.298 210.588 290.194C210.692 290.089 210.9 289.933 211.212 289.725H210.9C210.38 289.308 210.171 288.787 210.275 288.161C210.379 287.536 210.64 286.859 211.056 286.129C211.472 285.4 211.992 284.722 212.617 284.097C213.137 283.471 213.501 283.002 213.709 282.69L215.738 280.501L218.547 277.375L223.854 272.529C224.374 272.216 224.842 271.903 225.259 271.591C225.779 271.174 226.091 270.757 226.195 270.34C226.403 269.819 226.715 269.454 227.131 269.246C227.652 268.933 228.12 268.672 228.536 268.464C229.993 267.213 231.293 266.328 232.438 265.806C234.727 263.931 237.484 262.263 240.71 260.804C241.855 259.97 243.051 259.241 244.3 258.615C245.548 257.99 246.953 257.261 248.514 256.427L251.479 255.176C251.479 255.072 251.739 254.916 252.259 254.707C252.78 254.395 253.092 254.186 253.196 254.082C253.508 253.769 253.976 253.509 254.601 253.3C255.329 252.988 255.849 252.727 256.161 252.519L257.098 252.362C258.45 251.737 259.231 251.424 259.439 251.424C259.959 251.216 260.479 250.955 261 250.643C261.52 250.33 262.196 250.069 263.029 249.861C265.838 248.923 268.023 248.194 269.584 247.672C271.249 247.047 272.913 246.474 274.578 245.953C276.347 245.328 278.48 244.702 280.977 244.077C283.474 243.452 287.064 242.67 291.746 241.732H292.058L291.434 242.045L293.307 241.576L293.151 241.732C293.671 241.628 293.983 241.576 294.087 241.576C294.191 241.576 294.243 241.628 294.243 241.732C294.348 241.732 294.712 241.732 295.336 241.732C294.504 242.045 293.931 242.253 293.619 242.357C293.307 242.462 293.099 242.566 292.995 242.67C292.891 242.774 292.683 242.931 292.371 243.139C292.058 243.243 291.434 243.452 290.498 243.764C289.457 244.181 289.093 244.442 289.405 244.546C289.405 244.754 289.665 244.754 290.186 244.546C290.706 244.233 290.914 244.129 290.81 244.233C290.706 244.859 290.03 245.536 288.781 246.266C288.677 246.682 288.573 246.995 288.469 247.203C287.324 248.35 285.92 249.34 284.255 250.174C282.59 250.903 281.081 251.685 279.729 252.519C279.625 252.623 279.625 252.675 279.729 252.675C278.688 253.404 277.856 253.926 277.231 254.238C276.711 254.447 276.555 254.551 276.763 254.551C270.52 257.782 264.173 260.7 257.722 263.305C251.375 265.806 244.872 268.099 238.213 270.184L235.872 271.903ZM245.548 266.432C253.248 263.305 260.948 259.814 268.647 255.958C270.728 255.02 272.757 253.978 274.734 252.831C276.815 251.581 278.74 250.226 280.509 248.767L271.301 252.519L256.786 258.928L250.699 262.524C249.45 263.149 248.254 263.826 247.109 264.556C245.964 265.181 244.716 265.859 243.363 266.588C243.051 267.213 242.687 267.526 242.271 267.526L241.959 267.682L241.178 268.308C242.219 267.995 243.155 267.682 243.988 267.37C244.82 266.953 245.808 266.536 246.953 266.119L245.548 266.432ZM243.675 267.213L245.236 266.588C244.82 266.901 244.3 267.109 243.675 267.213Z" fill="white"/>
<path d="M276.11 271.903C272.676 274.196 269.346 276.801 266.121 279.72C267.578 279.199 268.826 279.094 269.867 279.407C271.635 278.782 273.456 278.104 275.329 277.375C277.202 276.645 278.919 275.968 280.48 275.342C282.144 274.613 283.549 274.04 284.694 273.623C285.942 273.102 286.775 272.737 287.191 272.529L310.134 263.931C310.238 263.931 310.29 263.931 310.29 263.931C310.394 263.826 310.55 263.774 310.758 263.774C311.591 263.462 312.787 262.993 314.348 262.367C316.013 261.742 317.781 261.065 319.654 260.335C321.527 259.605 323.296 258.928 324.961 258.303C326.73 257.573 328.082 257.052 329.019 256.739C330.58 256.218 332.088 255.697 333.545 255.176C335.106 254.655 336.667 254.082 338.227 253.457C339.164 253.04 340.152 252.675 341.193 252.362C342.337 251.945 343.326 251.633 344.158 251.424L340.724 252.519L339.008 253.613C338.487 253.821 338.019 254.082 337.603 254.395C337.187 254.603 336.719 254.811 336.198 255.02C335.158 255.437 333.597 256.062 331.516 256.896C329.539 257.625 327.354 258.459 324.961 259.397C322.672 260.231 320.487 261.065 318.406 261.898C316.325 262.732 314.764 263.409 313.724 263.931C313.515 263.931 312.943 264.243 312.007 264.868L310.446 265.337C309.197 266.067 307.845 266.744 306.388 267.37C304.931 267.891 303.423 268.412 301.862 268.933C301.966 269.141 301.602 269.454 300.769 269.871C300.041 270.288 299.157 270.757 298.116 271.278C297.076 271.799 296.035 272.268 294.995 272.685C293.954 273.102 293.33 273.362 293.122 273.466C291.041 274.821 288.596 276.02 285.786 277.062C283.081 278 280.532 278.938 278.139 279.876L276.734 280.97C277.046 280.762 277.41 280.658 277.826 280.658C278.243 280.658 278.711 280.605 279.231 280.501C278.295 280.918 277.306 281.283 276.266 281.596C275.225 281.804 274.237 282.065 273.3 282.377C272.78 282.69 272.052 283.055 271.115 283.471C270.179 283.784 269.554 284.201 269.242 284.722L267.213 285.66C265.653 286.598 263.936 287.275 262.063 287.692L258.005 288.474C257.589 288.682 257.069 288.891 256.444 289.099C256.028 289.933 255.196 290.663 253.947 291.288C253.843 291.392 253.739 291.444 253.635 291.444C253.323 291.653 253.219 291.653 253.323 291.444C253.219 291.444 253.167 291.496 253.167 291.6V291.444C253.167 291.236 253.427 290.923 253.947 290.506C253.531 290.819 253.219 290.975 253.011 290.975C253.011 290.871 253.063 290.767 253.167 290.663C253.271 290.663 253.323 290.558 253.323 290.35L253.167 290.506C253.167 290.402 253.219 290.35 253.323 290.35C253.323 290.35 253.323 290.298 253.323 290.194C253.323 290.089 252.959 290.141 252.23 290.35C251.398 290.558 250.826 290.61 250.513 290.506C250.617 290.402 250.721 290.298 250.826 290.194C250.93 290.089 251.138 289.933 251.45 289.725H251.138C250.617 289.308 250.409 288.787 250.513 288.161C250.617 287.536 250.878 286.859 251.294 286.129C251.71 285.4 252.23 284.722 252.855 284.097C253.375 283.471 253.739 283.002 253.947 282.69L255.976 280.501L258.785 277.375L264.092 272.529C264.612 272.216 265.08 271.903 265.497 271.591C266.017 271.174 266.329 270.757 266.433 270.34C266.641 269.819 266.953 269.454 267.369 269.246C267.89 268.933 268.358 268.672 268.774 268.464C270.231 267.213 271.531 266.328 272.676 265.806C274.965 263.931 277.722 262.263 280.948 260.804C282.092 259.97 283.289 259.241 284.538 258.615C285.786 257.99 287.191 257.261 288.752 256.427L291.717 255.176C291.717 255.072 291.977 254.916 292.497 254.707C293.018 254.395 293.33 254.186 293.434 254.082C293.746 253.769 294.214 253.509 294.839 253.3C295.567 252.988 296.087 252.727 296.399 252.519L297.336 252.362C298.688 251.737 299.469 251.424 299.677 251.424C300.197 251.216 300.717 250.955 301.238 250.643C301.758 250.33 302.434 250.069 303.267 249.861C306.076 248.923 308.261 248.194 309.822 247.672C311.486 247.047 313.151 246.474 314.816 245.953C316.585 245.328 318.718 244.702 321.215 244.077C323.712 243.452 327.302 242.67 331.984 241.732H332.296L331.672 242.045L333.545 241.576L333.389 241.732C333.909 241.628 334.221 241.576 334.325 241.576C334.429 241.576 334.481 241.628 334.481 241.732C334.586 241.732 334.95 241.732 335.574 241.732C334.742 242.045 334.169 242.253 333.857 242.357C333.545 242.462 333.337 242.566 333.233 242.67C333.129 242.774 332.921 242.931 332.609 243.139C332.296 243.243 331.672 243.452 330.736 243.764C329.695 244.181 329.331 244.442 329.643 244.546C329.643 244.754 329.903 244.754 330.424 244.546C330.944 244.233 331.152 244.129 331.048 244.233C330.944 244.859 330.267 245.536 329.019 246.266C328.915 246.682 328.811 246.995 328.707 247.203C327.562 248.35 326.158 249.34 324.493 250.174C322.828 250.903 321.319 251.685 319.967 252.519C319.862 252.623 319.862 252.675 319.967 252.675C318.926 253.404 318.094 253.926 317.469 254.238C316.949 254.447 316.793 254.551 317.001 254.551C310.758 257.782 304.411 260.7 297.96 263.305C291.613 265.806 285.11 268.099 278.451 270.184L276.11 271.903ZM285.786 266.432C293.486 263.305 301.186 259.814 308.885 255.958C310.966 255.02 312.995 253.978 314.972 252.831C317.053 251.581 318.978 250.226 320.747 248.767L311.539 252.519L297.024 258.928L290.937 262.524C289.688 263.149 288.492 263.826 287.347 264.556C286.202 265.181 284.954 265.859 283.601 266.588C283.289 267.213 282.925 267.526 282.509 267.526L282.197 267.682L281.416 268.308C282.457 267.995 283.393 267.682 284.225 267.37C285.058 266.953 286.046 266.536 287.191 266.119L285.786 266.432ZM283.913 267.213L285.474 266.588C285.058 266.901 284.538 267.109 283.913 267.213Z" fill="white"/>
<path d="M376.748 266.901H376.904C373.367 267.422 369.777 267.943 366.135 268.464C362.598 268.881 359.06 269.402 355.522 270.027C353.025 270.548 350.372 271.069 347.562 271.591C344.857 272.112 342.256 272.737 339.759 273.466V273.779H339.447L336.637 274.248C336.117 274.352 335.649 274.457 335.233 274.561C334.816 274.665 334.348 274.821 333.828 275.03L331.487 275.811L327.429 277.375C326.492 277.583 325.712 277.792 325.088 278C324.463 278.208 323.891 278.365 323.371 278.469L322.278 278.938L321.81 279.563L316.504 280.658C316.191 280.866 315.099 281.387 313.226 282.221C311.457 282.95 309.532 283.784 307.451 284.722C305.37 285.556 303.497 286.337 301.833 287.067C300.168 287.797 299.335 288.213 299.335 288.318L294.185 290.663C293.04 291.079 291.896 291.548 290.751 292.069C289.607 292.695 288.41 292.955 287.162 292.851L287.006 292.695L287.474 292.538H287.318L288.41 291.913H287.786C287.786 291.809 287.942 291.705 288.254 291.6C288.462 291.496 288.618 291.34 288.722 291.132H288.566L288.41 290.975H288.254L289.347 290.506C289.763 290.298 289.919 290.194 289.815 290.194V290.037C289.607 290.037 289.191 289.985 288.566 289.881C287.942 289.777 287.578 289.672 287.474 289.568C287.37 289.36 287.526 289.203 287.942 289.099L285.601 289.568C284.56 289.777 283.676 290.089 282.948 290.506C283.676 290.089 284.092 289.516 284.196 288.787C284.612 288.266 285.029 287.797 285.445 287.38C285.757 286.963 285.757 286.494 285.445 285.973C285.133 285.66 285.393 285.4 286.225 285.191C287.578 284.045 289.087 283.055 290.751 282.221C292.312 281.283 293.977 280.345 295.746 279.407C298.347 278.052 300.844 276.801 303.237 275.655C305.734 274.404 308.284 273.102 310.885 271.747C313.382 270.6 315.879 269.402 318.377 268.151C320.874 266.901 323.267 265.65 325.556 264.399L338.978 257.052C340.019 256.531 340.955 255.958 341.788 255.333C342.62 254.707 343.661 254.186 344.909 253.769C344.701 253.665 344.753 253.561 345.065 253.457V253.3C344.961 253.404 344.805 253.457 344.597 253.457C344.077 253.665 343.4 253.873 342.568 254.082C341.84 254.186 341.059 254.342 340.227 254.551C336.585 255.28 332.735 256.01 328.677 256.739C324.62 257.469 320.51 257.573 316.348 257.052H317.284C318.325 257.156 319.261 257.208 320.093 257.208C321.03 257.104 321.966 257 322.903 256.896C322.486 256.896 322.018 256.896 321.498 256.896C321.186 256.792 320.822 256.792 320.406 256.896C321.03 256.687 321.654 256.583 322.278 256.583C323.007 256.479 323.735 256.375 324.463 256.27C324.88 256.27 325.244 256.218 325.556 256.114L325.244 256.27H325.4C325.504 256.27 325.712 256.218 326.024 256.114H326.492L327.429 255.958H327.273L329.926 255.489H327.741C327.013 255.489 326.284 255.541 325.556 255.645C326.284 255.437 327.013 255.28 327.741 255.176C328.573 255.072 329.094 254.968 329.302 254.864C330.134 254.759 330.914 254.655 331.643 254.551C332.475 254.342 333.464 254.134 334.608 253.926H333.204C335.285 253.404 337.314 252.883 339.29 252.362C341.371 251.737 343.348 251.164 345.221 250.643C348.447 249.705 351.516 248.663 354.43 247.516C357.447 246.37 360.517 245.38 363.638 244.546V244.39C364.262 244.077 364.575 243.868 364.575 243.764C364.783 243.764 364.939 243.764 365.043 243.764C365.251 243.66 365.459 243.608 365.667 243.608C366.291 243.087 367.072 242.67 368.008 242.357C368.945 241.94 369.881 241.576 370.818 241.263C371.546 240.846 372.326 240.429 373.159 240.012C374.095 239.596 375.084 239.491 376.124 239.7C376.644 239.491 377.217 239.231 377.841 238.918C378.465 238.501 379.142 238.136 379.87 237.824H380.338L380.182 237.98C380.078 238.084 379.662 238.345 378.933 238.762L375.812 240.95L374.719 241.732H374.875C374.875 241.628 374.98 241.576 375.188 241.576V241.732H375.344C375.24 241.836 374.98 241.993 374.563 242.201C374.147 242.409 374.043 242.514 374.251 242.514C374.355 242.514 374.615 242.618 375.032 242.826C375.552 243.035 375.916 243.191 376.124 243.295C376.644 243.504 376.644 243.764 376.124 244.077C375.604 244.285 375.032 244.494 374.407 244.702L374.251 244.859H375.188L374.095 245.484H374.251L374.095 245.797C374.199 245.797 374.095 245.901 373.783 246.109L374.407 245.797C374.303 246.005 374.043 246.109 373.627 246.109L375.188 247.36C375.396 247.568 375.292 247.777 374.875 247.985C374.459 248.194 374.043 248.35 373.627 248.454C374.459 248.663 374.563 248.923 373.939 249.236C373.419 249.444 372.951 249.653 372.534 249.861L369.569 251.112L367.852 251.737L359.424 254.864L352.245 257.677L346.314 259.866L342.412 262.367L342.1 262.211C342.308 262.211 342.62 262.055 343.036 261.742C343.452 261.429 343.765 261.117 343.973 260.804C343.14 261.012 342.62 261.117 342.412 261.117L337.886 263.305C337.053 263.618 336.169 264.087 335.233 264.712C334.296 265.233 333.464 265.285 332.735 264.868C329.822 266.223 326.961 267.63 324.151 269.089C321.446 270.444 318.793 271.747 316.191 272.998C315.151 273.727 314.163 274.352 313.226 274.873C312.29 275.395 311.405 275.864 310.573 276.28C310.781 276.28 310.729 276.332 310.417 276.437C310.105 276.541 310.105 276.593 310.417 276.593C310.729 276.697 311.145 276.593 311.665 276.28C312.186 275.968 312.602 275.759 312.914 275.655L328.053 272.372C331.175 271.851 334.296 271.33 337.418 270.809C340.643 270.288 343.869 269.715 347.094 269.089L350.84 268.62C352.089 268.412 353.441 268.256 354.898 268.151C356.355 267.943 357.915 267.734 359.58 267.526C359.788 267.526 360.309 267.526 361.141 267.526C361.973 267.422 362.858 267.37 363.794 267.37C364.731 267.266 365.615 267.213 366.447 267.213C367.28 267.109 367.696 267.005 367.696 266.901C368.008 266.901 368.216 266.901 368.32 266.901C368.528 266.797 368.737 266.744 368.945 266.744H369.413L380.026 266.432L379.714 266.588H380.026L376.748 266.901ZM345.69 253.457C346.418 253.352 346.73 253.248 346.626 253.144C346.314 253.144 346.002 253.248 345.69 253.457ZM336.169 253.457C335.753 253.457 335.441 253.509 335.233 253.613L334.608 253.926L336.169 253.457ZM289.971 290.506C289.971 290.298 289.815 290.35 289.503 290.663L289.971 290.506ZM381.431 237.199L381.275 237.355C381.17 237.459 381.066 237.511 380.962 237.511L381.118 237.355L381.431 237.199ZM380.494 237.667C380.494 237.667 380.286 237.72 379.87 237.824L380.494 237.667ZM289.035 290.35C289.035 290.35 288.93 290.35 288.722 290.35H289.035Z" fill="white"/>
<path d="M401.776 240.95L401.308 241.263H401.464C401.36 241.367 401.256 241.419 401.152 241.419L400.684 241.888L400.996 241.732C400.892 242.253 400.632 242.618 400.216 242.826L399.904 242.983L400.372 242.826H400.528L399.747 243.139V243.295H399.591C399.071 243.712 398.759 243.921 398.655 243.921L398.499 244.077C398.707 243.973 399.019 243.973 399.435 244.077C399.956 244.077 400.268 244.025 400.372 243.921C400.372 244.233 400.06 244.65 399.435 245.171C398.811 245.588 398.343 245.901 398.031 246.109C398.239 246.005 398.395 245.901 398.499 245.797C398.707 245.692 398.915 245.588 399.123 245.484C398.395 246.109 397.718 246.734 397.094 247.36C396.47 247.881 395.846 248.454 395.221 249.079C395.221 249.6 394.701 250.278 393.661 251.112C392.724 251.841 392.048 252.362 391.632 252.675C391.527 252.988 391.111 253.404 390.383 253.926C389.759 254.342 389.342 254.603 389.134 254.707L390.071 254.238C387.366 257.156 384.244 259.814 380.706 262.211C377.273 264.504 373.995 266.901 370.874 269.402C366.816 272.424 362.914 275.447 359.168 278.469C355.422 281.387 351.833 284.201 348.399 286.911H348.243L347.931 287.067L342.624 291.132C341.584 292.069 340.543 293.06 339.503 294.102C338.462 295.144 337.422 296.134 336.381 297.072C336.797 296.551 337.318 295.926 337.942 295.196C338.566 294.571 339.034 293.998 339.347 293.476C340.387 292.226 341.584 291.027 342.936 289.881C344.185 288.839 345.381 287.849 346.526 286.911L350.896 282.221C350.896 282.117 351.052 281.96 351.364 281.752L352.769 280.501C352.665 280.293 352.873 279.876 353.393 279.251C353.914 278.521 354.122 278.052 354.018 277.844L352.925 278.625V278.469H352.769L357.139 274.873H356.983C357.607 274.352 358.128 273.935 358.544 273.623C358.96 273.31 359.532 272.893 360.261 272.372H359.948L356.827 274.717L351.833 278.938L353.549 277.218L361.353 270.809C361.977 270.288 362.602 269.715 363.226 269.089L363.694 268.777C363.798 268.672 363.954 268.516 364.162 268.308C364.266 268.203 364.319 268.099 364.319 267.995C364.319 267.682 364.683 267.318 365.411 266.901C366.243 266.38 366.972 265.859 367.596 265.337L372.122 261.586L374.307 259.71L376.336 258.303C375.816 258.511 375.296 258.772 374.775 259.084C374.255 259.293 373.995 259.345 373.995 259.241C373.891 258.824 374.359 258.251 375.4 257.521C376.544 256.687 377.273 256.166 377.585 255.958L383.047 252.206L388.354 248.767L389.759 247.985L394.597 245.015C395.325 244.39 396.158 243.712 397.094 242.983C398.135 242.253 399.175 241.576 400.216 240.95H400.372L400.528 240.794L401.308 240.325C401.204 240.429 401.048 240.481 400.84 240.481L404.898 237.824L403.805 238.918L401.62 240.638L400.684 241.263H400.996C401.516 240.846 401.828 240.638 401.932 240.638L404.274 238.762L408.332 235.479L401.776 240.95ZM448.755 204.526C448.443 204.734 448.235 204.839 448.131 204.839H448.287L439.702 210.623L431.587 217.032C430.13 218.179 428.673 219.273 427.217 220.315C425.864 221.357 424.563 222.556 423.315 223.911L417.852 228.6C417.748 228.705 417.488 228.965 417.072 229.382C416.655 229.695 416.239 230.06 415.823 230.476C415.407 230.893 414.991 231.258 414.574 231.571C414.158 231.779 413.846 231.883 413.638 231.883C413.118 231.675 413.066 231.466 413.482 231.258C413.898 230.945 414.262 230.529 414.574 230.007C414.991 229.278 415.043 228.705 414.731 228.288C414.522 227.767 414.991 227.246 416.135 226.725C415.615 226.516 415.407 226.203 415.511 225.787C415.719 225.37 415.927 225.057 416.135 224.849C416.031 224.536 415.927 224.38 415.823 224.38C415.823 224.38 416.031 224.275 416.447 224.067L418.476 222.973C418.476 222.868 418.58 222.712 418.788 222.504C418.684 222.295 418.684 222.139 418.788 222.035C418.997 221.514 419.361 221.045 419.881 220.628C420.297 220.419 420.661 220.107 420.974 219.69C421.39 219.273 421.806 218.908 422.222 218.596C422.326 218.491 422.69 218.231 423.315 217.814C423.939 217.397 424.615 216.928 425.344 216.407C426.072 215.886 426.696 215.469 427.217 215.156L428.309 214.531C428.933 214.323 429.454 214.114 429.87 213.906C430.39 213.593 430.806 213.28 431.118 212.968C431.326 212.968 431.535 212.916 431.743 212.811L431.274 213.28V213.437H431.431L428.933 215.625C429.974 215 430.91 214.427 431.743 213.906C432.575 213.385 433.043 213.176 433.147 213.28C433.251 213.176 433.355 213.124 433.46 213.124L433.616 212.968C434.76 212.551 435.749 212.186 436.581 211.873C437.517 211.457 438.246 211.04 438.766 210.623L439.234 210.467C439.338 210.362 439.442 210.31 439.546 210.31L439.39 210.467L439.859 210.154H439.702L439.859 209.998L440.639 209.529L440.951 209.372V209.529L441.107 209.372C441.836 208.851 442.512 208.382 443.136 207.965C443.864 207.548 444.229 207.288 444.229 207.184L448.131 204.839L448.755 204.526ZM409.736 234.541L408.8 235.01L408.332 235.323L409.736 234.385L409.58 234.541L410.985 233.603H411.141L410.985 233.759L410.204 234.228L409.736 234.541ZM351.989 279.094C351.676 279.407 351.156 279.772 350.428 280.189L351.989 279.094ZM351.676 279.094L352.769 278.469L352.925 278.625H352.769L351.676 279.094ZM449.067 204.213L449.223 204.37L448.911 204.526L449.067 204.213ZM407.707 235.792H407.551L408.332 235.323L407.707 235.792ZM351.833 278.938C351.416 279.251 351.104 279.459 350.896 279.563L351.833 278.938ZM450.159 203.432L449.379 203.901L449.067 204.057L450.159 203.432ZM350.116 280.189C350.324 280.189 350.324 280.189 350.116 280.189V280.189Z" fill="white"/>
<path d="M359.28 290.819C359.176 290.819 358.968 290.871 358.656 290.975C358.344 291.079 358.24 291.079 358.344 290.975L359.592 290.194L360.217 289.881C360.321 289.881 360.477 289.777 360.685 289.568C360.477 289.672 360.321 289.725 360.217 289.725C360.113 289.725 360.165 289.62 360.373 289.412C360.373 288.995 360.789 288.682 361.621 288.474C361.725 288.266 361.881 288.057 362.09 287.849C362.298 287.64 362.402 287.432 362.402 287.223C362.298 286.911 362.454 286.65 362.87 286.442C363.182 286.233 363.442 286.025 363.65 285.816C363.442 285.712 363.598 285.347 364.119 284.722C364.535 283.993 364.639 283.524 364.431 283.315C365.367 283.211 366.304 282.69 367.24 281.752L368.645 280.97C368.645 280.658 368.749 280.397 368.957 280.189C369.165 279.876 369.217 279.615 369.113 279.407C370.153 278.99 371.038 278.573 371.766 278.156C371.766 278.052 372.026 277.792 372.547 277.375C372.755 277.062 372.859 276.697 372.859 276.28C372.859 275.864 372.859 275.603 372.859 275.499C373.691 274.978 374.419 274.509 375.044 274.092C375.772 273.675 376.448 273.102 377.073 272.372L381.755 268.308L383.004 267.37L383.784 265.963C383.784 265.859 383.732 265.754 383.628 265.65C383.628 265.546 383.732 265.598 383.94 265.806C383.94 265.911 384.096 265.806 384.408 265.494C384.72 265.181 385.033 264.973 385.345 264.868L385.969 264.243C386.177 264.139 386.281 263.931 386.281 263.618L386.437 263.149C386.645 263.149 387.009 263.097 387.53 262.993C388.05 262.888 388.362 262.732 388.466 262.524C388.674 262.524 388.882 262.315 389.09 261.898H389.403L389.559 261.742C389.663 261.638 389.715 261.481 389.715 261.273C389.819 261.481 389.871 261.586 389.871 261.586L390.807 260.491L392.056 260.022V259.866L393.304 258.772L400.016 253.457L400.796 252.988C401.42 252.466 402.097 251.893 402.825 251.268C403.657 250.643 404.386 250.017 405.01 249.392L404.854 249.236H405.01C405.114 249.132 405.27 249.079 405.478 249.079C405.686 249.079 405.79 249.027 405.79 248.923C405.894 248.819 405.999 248.871 406.103 249.079L406.259 248.923V248.767C406.363 248.663 406.467 248.61 406.571 248.61C406.571 248.402 406.623 248.246 406.727 248.141C406.831 247.933 406.883 247.725 406.883 247.516C406.987 247.308 407.195 247.203 407.507 247.203C407.819 247.099 407.871 246.995 407.663 246.891H407.819C407.715 246.787 407.819 246.578 408.132 246.266C408.548 245.953 408.808 245.692 408.912 245.484H408.756C409.068 244.546 409.224 243.712 409.224 242.983C409.432 242.983 409.588 243.139 409.692 243.452C409.796 243.66 409.952 243.608 410.161 243.295L410.473 242.201H410.317C410.421 242.097 410.525 242.097 410.629 242.201C410.733 242.305 410.837 242.357 410.941 242.357C411.773 242.566 412.294 242.983 412.502 243.608L413.75 245.171L414.062 245.484V245.328C414.166 245.328 414.27 245.38 414.375 245.484V245.328C414.583 245.223 414.635 245.119 414.531 245.015C414.531 244.806 414.531 244.65 414.531 244.546C414.739 244.546 415.103 244.754 415.623 245.171C416.247 245.588 416.508 245.849 416.403 245.953C416.299 246.161 416.247 246.37 416.247 246.578C416.351 246.682 416.299 246.839 416.091 247.047C415.883 247.881 415.727 248.402 415.623 248.61C415.103 249.34 414.479 250.122 413.75 250.955C413.126 251.685 412.502 252.466 411.877 253.3C411.669 253.509 411.409 253.665 411.097 253.769C410.785 253.769 410.473 253.821 410.161 253.926L408.912 255.333C405.999 257.73 403.189 260.022 400.484 262.211C397.779 264.4 394.917 266.484 391.9 268.464L391.119 269.089L398.299 265.181C398.403 265.181 398.559 265.129 398.767 265.025C399.079 264.921 399.235 264.764 399.235 264.556C400.172 264.139 400.952 263.722 401.576 263.305C402.305 262.888 402.929 262.576 403.449 262.367C404.906 261.533 406.207 260.752 407.351 260.022C408.6 259.189 409.744 258.459 410.785 257.834C410.889 257.834 410.993 257.782 411.097 257.677L411.565 257.365C411.773 257.156 412.033 257 412.346 256.896C412.658 256.792 412.918 256.635 413.126 256.427C413.75 256.218 414.27 256.01 414.687 255.801C415.103 255.593 415.623 255.333 416.247 255.02C416.56 254.811 416.82 254.655 417.028 254.551C417.34 254.342 417.652 254.134 417.964 253.926C419.733 252.988 421.658 251.998 423.739 250.955C425.82 249.913 427.849 248.923 429.826 247.985C433.572 246.109 437.422 244.337 441.375 242.67C445.329 240.898 449.283 239.387 453.237 238.136C453.029 238.345 453.133 238.449 453.549 238.449C454.069 238.345 454.121 238.397 453.705 238.605C453.185 238.814 452.717 238.97 452.301 239.074C451.988 239.074 451.52 239.179 450.896 239.387C450.376 239.596 449.855 240.169 449.335 241.107C449.231 241.419 448.815 241.68 448.087 241.888C448.295 241.993 448.295 242.149 448.087 242.357C447.878 242.566 447.67 242.67 447.462 242.67V242.826H447.931C447.41 243.035 447.098 243.139 446.994 243.139H446.682L446.838 243.295C447.046 243.608 447.098 243.764 446.994 243.764C447.202 243.868 447.358 243.921 447.462 243.921C447.67 243.921 447.826 244.025 447.931 244.233C448.243 244.546 448.139 244.754 447.618 244.859C447.098 244.963 446.682 245.067 446.37 245.171C446.37 245.275 446.474 245.328 446.682 245.328H446.838L445.746 246.266C445.85 246.37 445.798 246.526 445.589 246.734V247.516H445.746C445.85 247.725 445.798 248.037 445.589 248.454C445.485 248.767 445.537 249.027 445.746 249.236C445.537 249.236 445.381 249.288 445.277 249.392L444.809 249.705H444.653C444.341 250.122 444.081 250.382 443.873 250.486C443.664 250.486 443.56 250.538 443.56 250.643V250.799H443.404L442.78 251.112C442.988 251.32 442.936 251.476 442.624 251.581C442.312 251.581 442.104 251.633 442 251.737C441.688 251.945 441.375 252.102 441.063 252.206C440.855 252.206 440.595 252.31 440.283 252.519C440.179 252.519 439.971 252.623 439.659 252.831C439.346 252.935 439.19 252.935 439.19 252.831L438.878 252.988L439.19 253.144H438.878C438.774 253.352 438.774 253.509 438.878 253.613C438.67 253.717 438.566 253.769 438.566 253.769C438.254 254.186 437.942 254.395 437.63 254.395C437.317 254.395 437.057 254.655 436.849 255.176H436.537V255.333C436.329 255.437 436.173 255.489 436.069 255.489C435.861 255.489 435.861 255.489 436.069 255.489C436.277 255.385 436.277 255.333 436.069 255.333H435.757L435.289 255.645C435.289 255.958 435.08 256.062 434.664 255.958V256.114C434.352 256.218 434.144 256.375 434.04 256.583C433.936 256.687 433.78 256.792 433.572 256.896L433.103 257.052C433.208 256.948 433.103 257 432.791 257.208L432.167 257.834C432.167 258.042 431.959 258.303 431.543 258.615C431.231 258.824 430.97 258.824 430.762 258.615C430.658 258.72 430.45 258.928 430.138 259.241C429.826 259.553 429.15 260.127 428.109 260.96C427.069 261.69 425.508 262.784 423.427 264.243C421.346 265.598 418.484 267.37 414.843 269.558L414.687 269.715L414.375 269.871C414.062 270.079 413.802 270.288 413.594 270.496C413.49 270.496 413.386 270.548 413.282 270.653C412.762 271.278 412.085 271.851 411.253 272.372C410.525 272.789 409.796 273.206 409.068 273.623C407.091 275.082 405.322 276.437 403.761 277.687C402.201 278.834 400.64 279.98 399.079 281.127C397.623 282.169 396.114 283.263 394.553 284.409C392.992 285.556 391.223 286.859 389.247 288.318L389.403 288.161L389.247 288.005V288.161C386.333 290.454 383.42 292.851 380.506 295.352C377.697 297.854 375.044 300.303 372.547 302.7C373.275 301.97 374.263 300.928 375.512 299.573C376.761 298.218 377.645 297.385 378.165 297.072C378.685 296.238 379.414 295.457 380.35 294.727C381.287 294.102 382.171 293.372 383.004 292.538C383.42 291.913 383.94 291.236 384.564 290.506C385.293 289.881 385.969 289.308 386.593 288.787C386.697 288.474 387.009 288.318 387.53 288.318L389.247 287.067L394.865 281.596L395.646 280.814V279.563C395.854 279.251 396.166 278.938 396.582 278.625C396.998 278.313 397.31 278.104 397.518 278C398.143 277.479 398.767 277.01 399.391 276.593C400.016 276.176 400.432 275.811 400.64 275.499C400.432 275.603 400.328 275.551 400.328 275.342C400.432 275.03 400.64 274.769 400.952 274.561L402.669 272.685C402.877 272.476 403.397 271.955 404.23 271.122C405.062 270.288 405.426 269.819 405.322 269.715C405.738 269.194 406.259 268.777 406.883 268.464C407.507 268.151 408.184 267.787 408.912 267.37C408.808 267.266 408.808 267.161 408.912 267.057L409.068 267.213C409.068 267.005 409.12 266.901 409.224 266.901C409.328 266.797 409.38 266.692 409.38 266.588L409.536 266.275H410.004L412.658 265.025C412.658 264.921 412.606 264.868 412.502 264.868C412.606 264.452 412.866 264.139 413.282 263.931C413.698 263.722 414.218 263.514 414.843 263.305L415.311 262.993L416.56 262.524C417.808 261.481 419.005 260.439 420.149 259.397C421.294 258.251 422.594 257.156 424.051 256.114C424.675 255.906 425.196 255.593 425.612 255.176C425.82 254.864 425.508 254.864 424.675 255.176C423.947 255.385 423.479 255.541 423.271 255.645C422.438 255.854 421.658 256.114 420.93 256.427C420.201 256.739 419.213 257.156 417.964 257.677C417.444 257.886 417.028 258.146 416.716 258.459C416.403 258.667 415.987 258.876 415.467 259.084C414.323 259.501 413.334 259.918 412.502 260.335C411.669 260.752 410.785 261.169 409.848 261.586C408.704 262.107 407.455 262.68 406.103 263.305C404.75 263.826 403.397 264.399 402.045 265.025L398.143 266.744C397.935 266.849 397.362 267.109 396.426 267.526C395.594 267.943 395.125 268.256 395.021 268.464H395.333C392.212 270.132 389.142 271.799 386.125 273.466C383.108 275.03 380.142 276.697 377.229 278.469C375.564 279.928 374.003 281.231 372.547 282.377C370.986 283.419 369.165 284.514 367.084 285.66C366.356 286.285 365.627 286.806 364.899 287.223C364.795 287.223 364.691 287.275 364.587 287.38L364.743 287.223L363.182 288.474L359.28 290.819ZM372.547 302.7H372.703L372.234 303.169C372.443 302.856 372.547 302.7 372.547 302.7ZM446.526 242.983C446.734 242.983 446.994 242.931 447.306 242.826L446.526 242.983Z" fill="white"/>
<path d="M498.04 245.015L497.572 245.328L497.416 245.484V245.328L497.26 245.484H497.416L497.26 245.64V245.484L496.948 245.797H497.104L496.636 245.953H496.479L495.543 246.578L496.323 246.109C496.011 246.318 495.751 246.526 495.543 246.734C495.439 246.839 495.283 246.995 495.075 247.203C494.451 247.62 493.826 248.089 493.202 248.61C492.578 249.027 491.953 249.444 491.329 249.861L491.173 250.017C490.549 250.33 489.82 250.799 488.988 251.424C488.26 252.05 487.375 252.779 486.335 253.613C485.918 254.134 485.71 254.551 485.71 254.864C484.566 255.28 483.889 255.645 483.681 255.958L482.277 257.052C481.34 257.886 480.404 258.72 479.467 259.553C478.531 260.283 477.594 261.012 476.658 261.742L476.034 262.055V262.211L475.878 262.367C475.774 262.471 475.617 262.576 475.409 262.68C475.305 262.68 475.149 262.732 474.941 262.836V262.993C474.525 263.201 474.109 263.409 473.693 263.618L472.756 264.243C472.548 264.347 472.392 264.399 472.288 264.399C472.184 264.399 472.028 264.452 471.82 264.556C471.924 264.66 471.924 264.764 471.82 264.868L471.508 265.025C470.675 265.546 469.895 266.015 469.166 266.432C468.438 266.849 467.814 267.318 467.294 267.839L469.947 266.432C465.16 269.975 460.374 273.519 455.588 277.062C450.802 280.501 446.015 283.993 441.229 287.536L435.923 291.757C442.582 291.132 449.241 290.715 455.9 290.506C462.663 290.298 469.427 290.402 476.19 290.819H475.565L475.722 290.975H475.253C475.045 290.871 474.265 290.871 472.912 290.975C471.664 291.184 470.935 291.288 470.727 291.288C468.75 291.079 466.877 291.079 465.108 291.288C464.9 291.288 464.744 291.288 464.64 291.288C464.64 291.392 464.536 291.444 464.328 291.444V291.288C464.12 291.288 463.912 291.236 463.704 291.132C463.496 291.132 463.236 291.184 462.923 291.288C459.802 291.496 456.732 291.757 453.715 292.069C450.698 292.382 447.68 292.695 444.663 293.007L444.819 293.164C444.611 293.164 444.299 293.164 443.882 293.164C443.466 293.268 443.154 293.216 442.946 293.007L442.634 293.164C442.218 293.164 441.853 293.164 441.541 293.164C441.333 293.268 441.073 293.32 440.761 293.32L440.917 293.476C440.813 293.476 440.709 293.424 440.605 293.32C440.501 293.424 440.397 293.476 440.293 293.476H439.668C439.46 293.581 439.2 293.633 438.888 293.633L438.732 293.789C438.316 293.789 437.847 293.789 437.327 293.789C436.911 293.893 436.495 293.945 436.079 293.945L436.235 294.102C436.027 294.102 435.871 294.05 435.766 293.945L432.489 294.571L430.616 296.29L428.899 297.385L425.934 300.199L425.778 300.355L425.934 300.511L425.778 300.667L425.934 300.824L425.622 300.98C425.309 301.189 425.049 301.345 424.841 301.449C424.737 301.553 424.581 301.71 424.373 301.918C423.957 302.335 423.489 302.7 422.968 303.012C422.552 303.429 422.136 303.898 421.72 304.419L421.252 304.576L420.939 304.732H421.095C420.991 304.836 420.939 304.94 420.939 305.045V305.201C420.731 305.201 420.471 305.305 420.159 305.514C420.263 305.618 420.003 305.931 419.379 306.452C418.858 307.077 418.442 307.494 418.13 307.702L415.009 310.672C414.696 311.089 414.28 311.454 413.76 311.767C413.24 312.184 412.824 312.653 412.511 313.174C412.303 313.382 411.939 313.643 411.419 313.955C410.795 314.268 410.534 314.529 410.638 314.737C410.43 314.633 410.274 314.685 410.17 314.893C409.962 315.102 409.754 315.258 409.546 315.362L409.078 315.831L409.234 315.519C409.026 315.623 408.922 315.727 408.922 315.831C408.922 316.04 408.818 316.196 408.609 316.3V316.457H408.453L408.297 316.613C408.089 316.821 407.933 316.926 407.829 316.926C407.725 317.03 407.673 317.186 407.673 317.395L407.985 317.082C407.881 317.29 407.777 317.447 407.673 317.551C407.465 317.655 407.309 317.811 407.205 318.02V317.864L407.049 318.176C406.945 317.968 406.841 317.864 406.737 317.864L406.424 318.02L406.581 318.176C406.685 318.385 406.685 318.437 406.581 318.333C406.372 318.228 406.32 318.28 406.424 318.489H406.268L406.112 318.645L405.644 318.801L405.8 318.645L403.771 320.677L403.147 320.99L402.367 321.772C402.575 321.876 402.679 322.032 402.679 322.241C402.575 322.449 402.367 322.605 402.054 322.71L401.742 323.179C401.742 322.658 401.638 322.553 401.43 322.866C401.222 323.179 401.066 323.387 400.962 323.491C400.858 323.7 400.598 323.804 400.182 323.804L399.401 324.273L399.089 324.742L398.153 325.68C397.944 325.888 397.996 325.94 398.309 325.836L397.84 325.993L397.216 326.462C387.643 335.529 378.487 344.752 369.747 354.132C361.007 363.615 352.475 373.36 344.151 383.365C344.151 383.469 343.995 383.625 343.683 383.834L339.781 388.367V388.211C339.573 388.107 339.208 388.419 338.688 389.149C338.168 389.878 337.752 390.139 337.44 389.931C337.335 389.931 337.492 389.67 337.908 389.149C338.324 388.628 338.844 388.002 339.469 387.273C340.093 386.648 340.665 386.022 341.185 385.397C341.602 384.876 341.862 384.563 341.966 384.459C343.11 383.208 344.151 381.906 345.087 380.551C346.024 379.196 346.804 377.789 347.428 376.33C347.74 375.809 348.053 375.236 348.365 374.61C348.677 373.985 348.781 373.412 348.677 372.891C348.469 372.578 348.677 372.109 349.301 371.484C349.926 370.963 350.342 370.598 350.55 370.39L352.423 368.357L353.515 366.169L354.14 365.543L354.452 364.293L357.105 360.854C357.209 360.437 357.365 360.072 357.573 359.759C357.677 359.551 357.625 359.447 357.417 359.447L358.978 358.04L358.822 357.883C359.134 357.258 359.55 356.633 360.07 356.007C360.487 355.382 360.851 354.809 361.163 354.288L367.874 343.97C369.643 340.948 371.412 337.821 373.181 334.591C374.949 331.464 376.458 328.233 377.707 324.898C378.123 323.856 378.643 322.501 379.268 320.834C379.788 319.166 380.1 317.551 380.204 315.988C380.308 314.424 380.048 313.069 379.424 311.923C378.695 310.881 377.291 310.308 375.21 310.203C374.585 309.995 374.065 309.943 373.649 310.047C373.129 310.151 372.608 310.256 372.088 310.36L370.527 310.672C370.215 310.777 370.111 310.725 370.215 310.516C369.487 310.725 368.811 310.933 368.186 311.141C367.562 311.35 367.042 311.35 366.625 311.141L366.469 310.985H366.157L366.469 310.829L367.718 310.36C367.198 310.464 367.042 310.412 367.25 310.203L368.03 309.578C367.614 309.578 367.146 309.682 366.625 309.891C366.73 309.682 366.834 309.422 366.938 309.109C367.042 308.901 367.146 308.588 367.25 308.171C367.458 308.171 367.614 308.119 367.718 308.015H367.874C367.666 307.911 367.354 307.859 366.938 307.859C366.625 307.65 366.886 307.337 367.718 306.921C368.55 306.608 369.019 306.4 369.123 306.295C368.706 306.504 368.342 306.504 368.03 306.295C369.383 305.357 370.839 304.628 372.4 304.107C373.857 303.586 375.47 303.064 377.239 302.543C377.343 302.543 377.759 302.439 378.487 302.231C378.695 302.231 379.007 302.127 379.424 301.918H379.892L379.736 301.762H380.204C380.308 301.762 380.464 301.71 380.672 301.605C380.88 301.605 381.036 301.605 381.14 301.605L381.765 301.293C381.973 301.189 382.129 301.136 382.233 301.136L383.325 300.98L383.169 300.824C383.377 300.824 383.638 300.772 383.95 300.667C384.158 300.667 384.366 300.667 384.574 300.667V300.511L384.262 300.355H384.73C385.146 300.146 385.771 299.99 386.603 299.886C387.435 299.886 388.008 299.834 388.32 299.73C388.736 299.625 389.204 299.469 389.725 299.261C390.141 299.156 390.557 299.104 390.973 299.104H391.441C391.649 299.104 391.858 299.052 392.066 298.948C392.17 298.948 392.326 298.948 392.534 298.948C392.742 298.844 392.95 298.687 393.158 298.479C393.366 298.375 393.574 298.323 393.782 298.323C394.199 298.114 394.667 298.01 395.187 298.01C395.603 298.01 396.02 297.958 396.436 297.854L396.28 298.01L396.748 297.854C397.372 297.645 397.944 297.541 398.465 297.541C399.193 297.333 399.817 297.228 400.338 297.228C400.546 297.124 400.754 297.072 400.962 297.072H401.118L400.962 296.916H401.118L404.708 296.603L404.864 296.447L415.789 294.727L423.593 293.476H424.061L428.743 289.725L432.177 287.067C432.489 286.859 432.801 286.598 433.113 286.285C433.425 285.868 433.79 285.504 434.206 285.191L437.639 282.69C437.952 282.481 438.42 282.221 439.044 281.908C439.668 281.596 440.085 281.231 440.293 280.814L439.98 280.658C441.645 279.199 442.79 278.208 443.414 277.687L444.195 277.062L459.49 266.119C460.114 265.598 460.738 265.129 461.363 264.712C462.091 264.295 462.871 263.826 463.704 263.305L464.016 262.993C463.808 262.993 463.6 263.097 463.392 263.305L457.149 266.119H457.305C457.305 266.328 457.149 266.536 456.837 266.744C456.524 266.953 456.108 267.161 455.588 267.37L454.339 267.995C454.027 268.099 453.819 268.203 453.715 268.308L451.53 269.558C451.426 269.558 451.27 269.663 451.062 269.871C450.958 269.975 450.802 270.027 450.594 270.027C448.2 271.174 445.755 272.32 443.258 273.466C440.865 274.613 438.42 275.759 435.923 276.906L420.627 284.878L417.35 287.223C417.142 287.432 416.881 287.536 416.569 287.536C416.153 287.64 415.789 287.744 415.477 287.849L415.321 288.005C414.696 288.422 414.02 288.943 413.292 289.568C412.459 290.298 411.731 290.663 411.107 290.663H410.795C410.795 290.454 410.847 290.298 410.951 290.194C411.055 290.194 411.211 290.089 411.419 289.881C411.107 289.985 411.055 289.881 411.263 289.568C411.367 289.256 411.471 288.995 411.575 288.787H411.107C410.795 288.37 410.743 288.005 410.951 287.692L410.795 287.38H410.482C410.066 287.38 410.118 287.171 410.638 286.754L411.107 284.722C411.003 284.514 411.159 284.253 411.575 283.94C411.991 283.524 412.303 283.211 412.511 283.002L411.731 283.159C412.355 281.804 413.188 280.605 414.228 279.563L417.35 276.437L422.344 272.685C422.864 272.164 423.333 271.695 423.749 271.278C424.165 270.861 424.789 270.444 425.622 270.027L427.495 268.62C427.703 268.099 428.275 267.578 429.211 267.057C430.148 266.536 430.772 266.171 431.084 265.963L433.581 264.243C433.685 264.347 434.05 264.243 434.674 263.931C435.298 263.618 435.506 263.462 435.298 263.462C436.339 262.732 437.483 261.95 438.732 261.117C440.085 260.283 441.853 259.345 444.038 258.303C446.223 257.261 448.929 256.01 452.154 254.551C455.484 253.092 459.698 251.32 464.796 249.236C468.542 247.464 472.808 245.849 477.594 244.39C482.381 242.826 487.167 241.524 491.953 240.481C491.953 240.586 492.109 240.638 492.422 240.638C492.838 240.534 493.098 240.481 493.202 240.481C492.786 240.69 492.265 240.846 491.641 240.95C491.017 241.055 490.497 241.107 490.08 241.107C489.456 241.315 488.832 241.524 488.207 241.732C487.583 241.94 487.115 242.149 486.803 242.357C486.595 242.462 486.387 242.618 486.179 242.826C485.97 242.931 485.71 243.035 485.398 243.139L482.901 243.921C483.005 243.921 482.953 244.025 482.745 244.233C482.641 244.337 482.485 244.39 482.277 244.39L481.965 244.546C485.502 243.504 489.04 242.618 492.578 241.888C496.219 241.055 499.757 240.325 503.191 239.7L502.566 239.856C502.462 240.065 502.046 240.273 501.318 240.481C500.589 240.586 499.757 240.742 498.821 240.95H498.664C498.248 241.159 497.988 241.263 497.884 241.263L498.04 241.107H497.884L497.572 241.263H497.728L496.636 241.419C496.74 241.315 496.844 241.263 496.948 241.263H496.792C496.063 241.263 495.543 241.367 495.231 241.576L496.011 241.419H496.323L494.763 241.888H495.231C495.543 241.68 495.959 241.628 496.479 241.732C497.104 241.732 497.624 241.732 498.04 241.732C497.624 241.836 497.052 241.888 496.323 241.888C495.595 241.888 495.075 241.993 494.763 242.201L488.832 244.077L492.265 243.295C488.208 244.65 484.254 246.005 480.404 247.36C476.554 248.819 472.652 250.434 468.698 252.206L457.617 257.99C455.64 259.032 453.611 260.127 451.53 261.273C449.449 262.315 447.472 263.357 445.599 264.399C445.079 264.921 444.559 265.337 444.038 265.65C443.518 265.859 443.258 266.067 443.258 266.275L436.079 271.591C435.454 272.007 434.778 272.476 434.05 272.998C433.321 273.414 432.645 273.779 432.021 274.092C431.813 274.404 431.5 274.717 431.084 275.03L430.304 275.655C429.68 276.176 429.003 276.697 428.275 277.218C427.651 277.635 427.13 278.104 426.714 278.625L439.98 272.841C443.31 271.382 446.64 269.923 449.969 268.464L460.114 263.774C461.779 262.94 463.496 262.159 465.265 261.429C467.137 260.596 468.906 259.71 470.571 258.772C472.132 257.938 473.797 257 475.565 255.958C477.334 254.916 478.427 254.238 478.843 253.926C480.404 253.092 481.965 252.206 483.525 251.268C485.19 250.226 486.907 249.288 488.676 248.454C488.572 248.663 488.676 248.767 488.988 248.767C489.3 248.663 489.352 248.715 489.144 248.923L488.832 249.236C488.624 249.236 488.416 249.34 488.207 249.548C487.375 250.382 487.063 251.007 487.271 251.424C487.479 251.112 487.947 250.799 488.676 250.486C488.78 250.382 488.884 250.33 488.988 250.33V250.486L489.144 250.33C489.456 250.122 489.716 249.965 489.924 249.861C490.236 249.757 490.549 249.6 490.861 249.392L491.017 249.236H490.861L497.104 245.484L498.04 245.015ZM420.315 296.603C416.361 297.437 412.407 298.323 408.453 299.261C404.396 300.199 400.286 301.241 396.124 302.387C393.106 303.221 390.037 304.002 386.915 304.732C383.794 305.566 380.672 306.556 377.551 307.702C378.799 307.494 379.84 307.859 380.672 308.797C381.401 309.734 381.817 310.62 381.921 311.454C382.753 313.017 383.013 314.633 382.701 316.3C382.389 317.968 382.077 319.635 381.765 321.303C380.412 324.846 378.799 328.233 376.926 331.464C374.949 334.799 372.92 338.134 370.839 341.469C369.383 343.866 367.822 346.211 366.157 348.504C364.388 350.797 362.672 353.141 361.007 355.538C363.296 353.454 365.429 351.37 367.406 349.285C369.279 347.305 371.256 345.221 373.337 343.032L377.707 338.186C378.123 337.665 378.435 337.352 378.643 337.248C378.643 337.144 378.799 336.988 379.111 336.779H378.955C379.163 336.571 379.268 336.414 379.268 336.31C379.163 336.31 379.111 336.206 379.111 335.998C379.528 335.998 379.892 335.841 380.204 335.529C380.516 335.216 380.776 334.955 380.984 334.747L381.296 334.591L390.349 325.524C392.742 322.918 395.291 320.261 397.996 317.551C400.702 314.841 403.459 312.288 406.268 309.891L409.39 306.764L413.448 303.481L415.009 301.918C415.217 301.814 415.373 301.658 415.477 301.449C415.893 301.136 415.945 300.98 415.633 300.98L420.315 296.603ZM506 239.074L504.595 239.387H504.439L505.064 239.231C505.168 239.127 505.272 239.074 505.376 239.074H506ZM478.999 290.975L479.311 291.132C479.103 291.132 478.895 291.079 478.687 290.975H478.999ZM495.231 241.576C495.023 241.576 494.867 241.628 494.763 241.732H494.607L495.231 241.576ZM479.779 291.132C479.571 291.132 479.467 291.079 479.467 290.975H479.311C479.623 291.079 479.779 291.132 479.779 291.132Z" fill="white"/>
</g>
</svg>
